<svg width="27" height="28" viewBox="0 0 27 28" fill="none" xmlns="http://www.w3.org/2000/svg">
<path d="M14.1812 0.999987C6.86999 0.901237 0.901237 6.86999 0.999987 14.1812C1.09749 21.1931 6.80686 26.9025 13.8187 27C21.1312 27.1 27.0987 21.1312 26.9987 13.82C26.9025 6.80686 21.1931 1.09749 14.1812 0.999987ZM19.9375 8.95249L14.7975 20.61C14.4981 21.2644 13.4987 21.0475 13.4987 20.325V14.75C13.4987 14.6837 13.4724 14.6201 13.4255 14.5732C13.3786 14.5263 13.315 14.5 13.2487 14.5H7.67499C6.95499 14.5 6.73749 13.5081 7.38936 13.2081L19.0475 8.06249C19.172 8.00497 19.3113 7.98703 19.4463 8.01111C19.5814 8.03518 19.7058 8.10011 19.8028 8.19712C19.8999 8.29414 19.9648 8.41858 19.9889 8.55365C20.0129 8.68872 19.995 8.82793 19.9375 8.95249V8.95249Z" fill="#3F61A1"/>
</svg>
