<svg width="28" height="28" viewBox="0 0 28 28" fill="none" xmlns="http://www.w3.org/2000/svg">
<path d="M14 0.666656C11.414 0.67157 8.88517 1.4284 6.72163 2.84497C4.55809 4.26154 2.85319 6.27671 1.81458 8.64502C0.775976 11.0133 0.448495 13.6325 0.872029 16.1837C1.29556 18.7348 2.45183 21.1077 4.19999 23.0133V23.0133C5.44856 24.3667 6.96392 25.4468 8.65058 26.1856C10.3372 26.9244 12.1586 27.3058 14 27.3058C15.8414 27.3058 17.6627 26.9244 19.3494 26.1856C21.0361 25.4468 22.5514 24.3667 23.8 23.0133V23.0133C25.5482 21.1077 26.7044 18.7348 27.128 16.1837C27.5515 13.6325 27.224 11.0133 26.1854 8.64502C25.1468 6.27671 23.4419 4.26154 21.2784 2.84497C19.1148 1.4284 16.586 0.67157 14 0.666656V0.666656ZM14 24.6667C11.2379 24.6625 8.58521 23.587 6.59999 21.6667C7.20272 20.1994 8.22804 18.9444 9.54566 18.0612C10.8633 17.178 12.4137 16.7064 14 16.7064C15.5862 16.7064 17.1367 17.178 18.4543 18.0612C19.7719 18.9444 20.7973 20.1994 21.4 21.6667C19.4148 23.587 16.762 24.6625 14 24.6667ZM11.3333 11.3333C11.3333 10.8059 11.4897 10.2903 11.7827 9.8518C12.0758 9.41327 12.4922 9.07148 12.9795 8.86964C13.4668 8.66781 14.003 8.615 14.5202 8.7179C15.0375 8.82079 15.5127 9.07477 15.8856 9.44771C16.2586 9.82065 16.5125 10.2958 16.6154 10.8131C16.7183 11.3304 16.6655 11.8665 16.4637 12.3538C16.2618 12.8411 15.92 13.2576 15.4815 13.5506C15.043 13.8436 14.5274 14 14 14C13.2927 14 12.6145 13.719 12.1144 13.2189C11.6143 12.7188 11.3333 12.0406 11.3333 11.3333ZM23.2133 19.3333C22.022 17.2957 20.1885 15.7107 18 14.8267C18.6789 14.0569 19.1212 13.1075 19.274 12.0926C19.4267 11.0776 19.2833 10.0401 18.861 9.10465C18.4387 8.16917 17.7554 7.3754 16.8932 6.81861C16.031 6.26182 15.0264 5.96566 14 5.96566C12.9736 5.96566 11.969 6.26182 11.1068 6.81861C10.2445 7.3754 9.56129 8.16917 9.13899 9.10465C8.7167 10.0401 8.57331 11.0776 8.72603 12.0926C8.87876 13.1075 9.3211 14.0569 9.99999 14.8267C7.81146 15.7107 5.97795 17.2957 4.78666 19.3333C3.83725 17.7161 3.33562 15.8753 3.33333 14C3.33333 11.171 4.45713 8.45791 6.45752 6.45752C8.45791 4.45713 11.171 3.33332 14 3.33332C16.829 3.33332 19.5421 4.45713 21.5425 6.45752C23.5429 8.45791 24.6667 11.171 24.6667 14C24.6644 15.8753 24.1627 17.7161 23.2133 19.3333V19.3333Z" fill="#3F61A1"/>
</svg>
