<svg width="24" height="24" viewBox="0 0 24 24" fill="none" xmlns="http://www.w3.org/2000/svg">
<path d="M17.625 18.375C18.8676 18.375 19.875 17.3676 19.875 16.125C19.875 14.8824 18.8676 13.875 17.625 13.875C16.3824 13.875 15.375 14.8824 15.375 16.125C15.375 17.3676 16.3824 18.375 17.625 18.375Z" stroke="#B3261E" stroke-width="2" stroke-linecap="round" stroke-linejoin="round"/>
<path d="M14.7188 20.625C14.884 19.9797 15.2593 19.4077 15.7855 18.9993C16.3117 18.5908 16.9589 18.3691 17.625 18.3691C18.2911 18.3691 18.9383 18.5908 19.4645 18.9993C19.9907 19.4077 20.366 19.9797 20.5312 20.625" stroke="#B3261E" stroke-width="2" stroke-linecap="round" stroke-linejoin="round"/>
<path d="M3 7.5V5.25C3 5.05109 3.07902 4.86033 3.21967 4.71967C3.36032 4.57902 3.55109 4.5 3.75 4.5H8.69062C8.78801 4.49966 8.88451 4.51853 8.9746 4.55553C9.06469 4.59253 9.14659 4.64694 9.21563 4.71563L12 7.5" stroke="#B3261E" stroke-width="2" stroke-linecap="round" stroke-linejoin="round"/>
<path d="M11.3062 19.5H3.69375C3.60265 19.5 3.51243 19.4821 3.42826 19.4472C3.34409 19.4123 3.26762 19.3612 3.20319 19.2968C3.13877 19.2324 3.08767 19.1559 3.05281 19.0717C3.01794 18.9876 3 18.8974 3 18.8063V7.5H20.25C20.4489 7.5 20.6397 7.57902 20.7803 7.71967C20.921 7.86032 21 8.05109 21 8.25V11.25" stroke="#B3261E" stroke-width="2" stroke-linecap="round" stroke-linejoin="round"/>
</svg>
