<svg width="28" height="28" viewBox="0 0 28 28" fill="none" xmlns="http://www.w3.org/2000/svg">
<path fill-rule="evenodd" clip-rule="evenodd" d="M18.4133 26.04C18.28 26.9467 17.4533 27.6667 16.4667 27.6667H11.5333C10.5467 27.6667 9.71999 26.9467 9.59999 25.9733L9.23999 23.4533C8.87999 23.2667 8.53332 23.0667 8.18665 22.84L5.78665 23.8C4.85332 24.1467 3.82665 23.76 3.37332 22.9333L0.93332 18.7067C0.466654 17.8267 0.666654 16.7867 1.41332 16.2L3.45332 14.6133C3.43999 14.4133 3.42665 14.2133 3.42665 14C3.42665 13.8 3.43999 13.5867 3.45332 13.3867L1.42665 11.8C0.639987 11.2 0.439987 10.12 0.93332 9.29335L3.39999 5.04001C3.85332 4.21335 4.87999 3.84001 5.78665 4.20001L8.19999 5.17335C8.54665 4.94668 8.89332 4.74668 9.23999 4.56001L9.59999 2.01335C9.71999 1.08001 10.5467 0.34668 11.52 0.34668H16.4533C17.44 0.34668 18.2667 1.06668 18.3867 2.04001L18.7467 4.56001C19.1067 4.74668 19.4533 4.94668 19.8 5.17335L22.2 4.21335C23.1467 3.86668 24.1733 4.25335 24.6267 5.08001L27.08 9.32001C27.56 10.2 27.3467 11.24 26.6 11.8267L24.5733 13.4133C24.5867 13.6133 24.6 13.8133 24.6 14.0267C24.6 14.24 24.5867 14.44 24.5733 14.64L26.6 16.2267C27.3467 16.8267 27.56 17.8667 27.0933 18.7067L24.6133 23C24.16 23.8267 23.1333 24.2 22.2133 23.84L19.8133 22.88C19.4667 23.1067 19.12 23.3067 18.7733 23.4933L18.4133 26.04ZM12.16 25H15.84L16.3333 21.6L17.04 21.3067C17.6267 21.0667 18.2133 20.72 18.8267 20.2667L19.4267 19.8133L22.6 21.0933L24.44 17.8933L21.7333 15.7867L21.8267 15.04L21.8308 15.0041C21.8694 14.6703 21.9067 14.3476 21.9067 14C21.9067 13.64 21.8667 13.2933 21.8267 12.96L21.7333 12.2133L24.44 10.1067L22.5867 6.90668L19.4 8.18668L18.8 7.72001C18.24 7.29335 17.64 6.94668 17.0267 6.69335L16.3333 6.40001L15.84 3.00001H12.16L11.6667 6.40001L10.96 6.68001C10.3733 6.93335 9.78665 7.26668 9.17332 7.73335L8.57332 8.17335L5.39999 6.90668L3.54665 10.0933L6.25332 12.2L6.15999 12.9467C6.11999 13.2933 6.07999 13.6533 6.07999 14C6.07999 14.3467 6.10665 14.7067 6.15999 15.04L6.25332 15.7867L3.54665 17.8933L5.38665 21.0933L8.57332 19.8133L9.17332 20.28C9.74665 20.72 10.32 21.0533 10.9467 21.3067L11.6533 21.6L12.16 25ZM18.6667 14C18.6667 16.5773 16.5773 18.6667 14 18.6667C11.4227 18.6667 9.33332 16.5773 9.33332 14C9.33332 11.4227 11.4227 9.33335 14 9.33335C16.5773 9.33335 18.6667 11.4227 18.6667 14Z" fill="#7C7D7E"/>
</svg>
