<svg width="25" height="24" viewBox="0 0 25 24" fill="none" xmlns="http://www.w3.org/2000/svg">
<path d="M8.5 21.5625C9.22487 21.5625 9.8125 20.9749 9.8125 20.25C9.8125 19.5251 9.22487 18.9375 8.5 18.9375C7.77513 18.9375 7.1875 19.5251 7.1875 20.25C7.1875 20.9749 7.77513 21.5625 8.5 21.5625Z" fill="#B3261E"/>
<path d="M18.25 21.5625C18.9749 21.5625 19.5625 20.9749 19.5625 20.25C19.5625 19.5251 18.9749 18.9375 18.25 18.9375C17.5251 18.9375 16.9375 19.5251 16.9375 20.25C16.9375 20.9749 17.5251 21.5625 18.25 21.5625Z" fill="#B3261E"/>
<path d="M4.96562 6.75H21.7844L19.3094 15.4125C19.2211 15.7269 19.032 16.0036 18.7711 16.2C18.5103 16.3965 18.1922 16.5019 17.8656 16.5H8.88437C8.55783 16.5019 8.2397 16.3965 7.97886 16.2C7.71803 16.0036 7.52893 15.7269 7.44062 15.4125L4.04688 3.54375C4.00203 3.38696 3.9073 3.24905 3.77704 3.15093C3.64677 3.05282 3.48808 2.99983 3.325 3H1.75" stroke="#B3261E" stroke-width="2" stroke-linecap="round" stroke-linejoin="round"/>
</svg>
